HIERARCHY
ROOT CG
{
	OFFSET 0.000000 0.000000 27.772259
	CHANNELS 6 Xposition Yposition Zposition Xrotation Yrotation Zrotation
	JOINT Pelvis
	{
		OFFSET 0.000000 0.000000 0.000000
		CHANNELS 3 Xrotation Yrotation Zrotation
		JOINT Spine
		{
			OFFSET -0.000017 -10.490843 -0.495483
			CHANNELS 3 Xrotation Yrotation Zrotation
			JOINT Spine1
			{
				OFFSET -0.000010 -22.678980 0.018061
				CHANNELS 3 Xrotation Yrotation Zrotation
				JOINT Spine2
				{
					OFFSET -0.000010 -22.678967 0.018061
					CHANNELS 3 Xrotation Yrotation Zrotation
					JOINT Spine3
					{
						OFFSET -0.000010 -22.678982 0.018059
						CHANNELS 3 Xrotation Yrotation Zrotation
						JOINT Neck
						{
							OFFSET -0.000012 -22.678986 -1.289251
							CHANNELS 3 Xrotation Yrotation Zrotation
							JOINT Neck1
							{
								OFFSET -0.000007 -16.255905 0.012947
								CHANNELS 3 Xrotation Yrotation Zrotation
								JOINT Head
								{
									OFFSET -0.000005 -10.784607 -0.287502
									CHANNELS 3 Xrotation Yrotation Zrotation
									JOINT Jaw01
									{
										OFFSET 0.000031 7.782959 5.073944
										CHANNELS 3 Xrotation Yrotation Zrotation
										JOINT Jaw02
										{
											OFFSET 0.000004 -34.927139 -18.883980
											CHANNELS 3 Xrotation Yrotation Zrotation
											End Site
											{
												OFFSET -0.000170 8.372803 -38.812450
											}
										}
									}
									JOINT Nose
									{
										OFFSET -0.000002 -25.700912 7.222265
										CHANNELS 3 Xrotation Yrotation Zrotation
										End Site
										{
											OFFSET -0.000090 0.641281 -21.715439
										}
									}
									JOINT L_EyeSocket
									{
										OFFSET 7.352326 -19.832718 14.164183
										CHANNELS 3 Xrotation Yrotation Zrotation
										JOINT L_Eye
										{
											OFFSET -0.000868 -0.001053 0.016003
											CHANNELS 3 Xrotation Yrotation Zrotation
											End Site
											{
												OFFSET -0.001505 -0.001846 0.027969
											}
										}
										JOINT L_Eyelid_Top
										{
											OFFSET -0.001004 -0.002625 0.032516
											CHANNELS 3 Xrotation Yrotation Zrotation
											End Site
											{
												OFFSET -0.013218 0.005753 0.024086
											}
										}
										JOINT L_Eyelid_Bottom
										{
											OFFSET -0.001194 -0.002777 0.035381
											CHANNELS 3 Xrotation Yrotation Zrotation
											End Site
											{
												OFFSET -0.010032 0.008636 -0.024754
											}
										}
									}
									JOINT R_EyeSocket
									{
										OFFSET -7.352252 -19.832748 14.164206
										CHANNELS 3 Xrotation Yrotation Zrotation
										JOINT R_Eye
										{
											OFFSET 0.000875 -0.001068 0.015991
											CHANNELS 3 Xrotation Yrotation Zrotation
											End Site
											{
												OFFSET 0.001505 -0.001846 0.027962
											}
										}
										JOINT R_Eyelid_Top
										{
											OFFSET 0.001021 -0.002625 0.032516
											CHANNELS 3 Xrotation Yrotation Zrotation
											End Site
											{
												OFFSET 0.013214 0.005753 0.024078
											}
										}
										JOINT R_Eyelid_Bottom
										{
											OFFSET 0.001170 -0.002762 0.035366
											CHANNELS 3 Xrotation Yrotation Zrotation
											End Site
											{
												OFFSET 0.010029 0.008636 -0.024746
											}
										}
									}
								}
								JOINT Neck_Fat
								{
									OFFSET 0.000044 -9.595100 -17.491512
									CHANNELS 3 Xrotation Yrotation Zrotation
									End Site
									{
										OFFSET -0.000036 15.369423 -0.000007
									}
								}
							}
						}
						JOINT L_Clavicle
						{
							OFFSET 4.567107 -11.666092 -3.750029
							CHANNELS 3 Xrotation Yrotation Zrotation
							JOINT L_UpperArm
							{
								OFFSET 20.725666 -0.000053 -0.000032
								CHANNELS 3 Xrotation Yrotation Zrotation
								JOINT L_Forearm
								{
									OFFSET 5.265112 -0.585754 -20.155697
									CHANNELS 3 Xrotation Yrotation Zrotation
									JOINT L_Hand
									{
										OFFSET 2.653017 -10.877708 -16.383667
										CHANNELS 3 Xrotation Yrotation Zrotation
										JOINT L_Finger0
										{
											OFFSET -4.206146 -4.328911 -5.034346
											CHANNELS 3 Xrotation Yrotation Zrotation
											JOINT L_Finger01
											{
												OFFSET 0.084272 -1.788536 -4.181065
												CHANNELS 3 Xrotation Yrotation Zrotation
												End Site
												{
													OFFSET 3.261885 3.094673 -0.685818
												}
											}
										}
										JOINT L_Finger1
										{
											OFFSET -1.039112 -6.775742 -3.499998
											CHANNELS 3 Xrotation Yrotation Zrotation
											JOINT L_Finger11
											{
												OFFSET 1.320335 -3.040672 -6.425793
												CHANNELS 3 Xrotation Yrotation Zrotation
												End Site
												{
													OFFSET -1.244579 6.832077 -2.013330
												}
											}
										}
										JOINT L_Finger2
										{
											OFFSET 2.531296 -5.656487 -3.286415
											CHANNELS 3 Xrotation Yrotation Zrotation
											JOINT L_Finger21
											{
												OFFSET 1.991665 -2.402016 -5.957748
												CHANNELS 3 Xrotation Yrotation Zrotation
												End Site
												{
													OFFSET -2.793068 5.800873 -1.944178
												}
											}
										}
										JOINT L_Finger3
										{
											OFFSET 5.474075 -3.302338 -2.655975
											CHANNELS 3 Xrotation Yrotation Zrotation
											JOINT L_Finger31
											{
												OFFSET 2.026943 -1.267532 -5.961166
												CHANNELS 3 Xrotation Yrotation Zrotation
												End Site
												{
													OFFSET -4.375172 4.343658 -1.800320
												}
											}
										}
										JOINT L_Finger4
										{
											OFFSET 4.825745 1.085899 -2.321970
											CHANNELS 3 Xrotation Yrotation Zrotation
											JOINT L_Finger41
											{
												OFFSET 3.358261 -1.829651 -3.744434
												CHANNELS 3 Xrotation Yrotation Zrotation
												End Site
												{
													OFFSET -3.843296 2.955200 -2.267633
												}
											}
										}
									}
								}
							}
						}
						JOINT R_Clavicle
						{
							OFFSET -4.567111 -11.666092 -3.750036
							CHANNELS 3 Xrotation Yrotation Zrotation
							JOINT R_UpperArm
							{
								OFFSET -20.725670 -0.000031 0.000038
								CHANNELS 3 Xrotation Yrotation Zrotation
								JOINT R_Forearm
								{
									OFFSET -5.265285 -0.585762 -20.155655
									CHANNELS 3 Xrotation Yrotation Zrotation
									JOINT R_Hand
									{
										OFFSET -2.653147 -10.877739 -16.383663
										CHANNELS 3 Xrotation Yrotation Zrotation
										JOINT R_Finger0
										{
											OFFSET 4.206116 -4.328888 -5.034388
											CHANNELS 3 Xrotation Yrotation Zrotation
											JOINT R_Finger01
											{
												OFFSET -0.084324 -1.788544 -4.181051
												CHANNELS 3 Xrotation Yrotation Zrotation
												End Site
												{
													OFFSET -3.261890 3.094666 -0.685791
												}
											}
										}
										JOINT R_Finger1
										{
											OFFSET 1.039101 -6.775711 -3.499994
											CHANNELS 3 Xrotation Yrotation Zrotation
											JOINT R_Finger11
											{
												OFFSET -1.320374 -3.040672 -6.425779
												CHANNELS 3 Xrotation Yrotation Zrotation
												End Site
												{
													OFFSET 1.244556 6.832077 -2.013342
												}
											}
										}
										JOINT R_Finger2
										{
											OFFSET -2.531307 -5.656464 -3.286409
											CHANNELS 3 Xrotation Yrotation Zrotation
											JOINT R_Finger21
											{
												OFFSET -1.991707 -2.402016 -5.957708
												CHANNELS 3 Xrotation Yrotation Zrotation
												End Site
												{
													OFFSET 2.793037 5.800858 -1.944197
												}
											}
										}
										JOINT R_Finger3
										{
											OFFSET -5.474091 -3.302330 -2.655947
											CHANNELS 3 Xrotation Yrotation Zrotation
											JOINT R_Finger31
											{
												OFFSET -2.026993 -1.267532 -5.961157
												CHANNELS 3 Xrotation Yrotation Zrotation
												End Site
												{
													OFFSET 4.375156 4.343674 -1.800358
												}
											}
										}
										JOINT R_Finger4
										{
											OFFSET -4.825756 1.085922 -2.321926
											CHANNELS 3 Xrotation Yrotation Zrotation
											JOINT R_Finger41
											{
												OFFSET -3.358307 -1.829651 -3.744390
												CHANNELS 3 Xrotation Yrotation Zrotation
												End Site
												{
													OFFSET 3.843273 2.955208 -2.267666
												}
											}
										}
									}
								}
							}
						}
					}
				}
			}
		}
		JOINT Tail01
		{
			OFFSET -0.000010 10.922326 -0.017508
			CHANNELS 3 Xrotation Yrotation Zrotation
			JOINT Tail02
			{
				OFFSET -0.000022 21.986111 0.000013
				CHANNELS 3 Xrotation Yrotation Zrotation
				JOINT Tail03
				{
					OFFSET -0.000022 21.986118 0.000002
					CHANNELS 3 Xrotation Yrotation Zrotation
					JOINT Tail04
					{
						OFFSET -0.000022 21.986122 0.000004
						CHANNELS 3 Xrotation Yrotation Zrotation
						JOINT Tail05
						{
							OFFSET -0.000022 21.986099 0.000010
							CHANNELS 3 Xrotation Yrotation Zrotation
							JOINT Tail06
							{
								OFFSET -0.000022 21.986099 0.000006
								CHANNELS 3 Xrotation Yrotation Zrotation
								JOINT Tail07
								{
									OFFSET -0.000022 21.986099 0.000000
									CHANNELS 3 Xrotation Yrotation Zrotation
									JOINT Tail08
									{
										OFFSET -0.000022 21.984848 0.000050
										CHANNELS 3 Xrotation Yrotation Zrotation
										JOINT Tail09
										{
											OFFSET -0.000025 21.926025 -1.606211
											CHANNELS 3 Xrotation Yrotation Zrotation
											JOINT Tail10
											{
												OFFSET -0.000027 21.750092 -3.203882
												CHANNELS 3 Xrotation Yrotation Zrotation
												End Site
												{
													OFFSET -0.000036 4.767395 21.461668
												}
											}
										}
									}
								}
							}
						}
					}
				}
			}
		}
		JOINT L_Thigh
		{
			OFFSET 24.788780 0.000021 -0.000034
			CHANNELS 3 Xrotation Yrotation Zrotation
			JOINT L_Calf
			{
				OFFSET 4.720837 4.161326 -21.049969
				CHANNELS 3 Xrotation Yrotation Zrotation
				JOINT L_Foot
				{
					OFFSET 2.154160 21.114433 -11.949743
					CHANNELS 3 Xrotation Yrotation Zrotation
					JOINT L_Toe0
					{
						OFFSET 4.557564 9.251841 -8.735286
						CHANNELS 3 Xrotation Yrotation Zrotation
						End Site
						{
							OFFSET 4.555542 -12.646044 1.018752
						}
					}
					JOINT L_Toe1
					{
						OFFSET 2.346291 5.845602 -11.687160
						CHANNELS 3 Xrotation Yrotation Zrotation
						End Site
						{
							OFFSET 5.347954 -12.298279 1.365644
						}
					}
					JOINT L_Toe2
					{
						OFFSET -0.356020 3.902458 -12.541145
						CHANNELS 3 Xrotation Yrotation Zrotation
						End Site
						{
							OFFSET 3.916235 -12.806129 1.542549
						}
					}
					JOINT L_Toe3
					{
						OFFSET -4.603447 3.183935 -12.435249
						CHANNELS 3 Xrotation Yrotation Zrotation
						End Site
						{
							OFFSET 3.810858 -12.587427 2.957583
						}
					}
					JOINT L_Toe4
					{
						OFFSET -7.144358 6.231495 -10.072764
						CHANNELS 3 Xrotation Yrotation Zrotation
						End Site
						{
							OFFSET 3.810858 -12.587425 2.957585
						}
					}
				}
			}
		}
		JOINT R_Thigh
		{
			OFFSET -24.788780 -0.000024 0.000034
			CHANNELS 3 Xrotation Yrotation Zrotation
			JOINT R_Calf
			{
				OFFSET -4.720922 4.161324 -21.049952
				CHANNELS 3 Xrotation Yrotation Zrotation
				JOINT R_Foot
				{
					OFFSET -2.154238 21.114414 -11.949730
					CHANNELS 3 Xrotation Yrotation Zrotation
					JOINT R_Toe0
					{
						OFFSET -4.557598 9.251823 -8.735270
						CHANNELS 3 Xrotation Yrotation Zrotation
						End Site
						{
							OFFSET -4.555508 -12.646051 1.018756
						}
					}
					JOINT R_Toe1
					{
						OFFSET -2.346325 5.845589 -11.687157
						CHANNELS 3 Xrotation Yrotation Zrotation
						End Site
						{
							OFFSET -5.347919 -12.298286 1.365654
						}
					}
					JOINT R_Toe2
					{
						OFFSET 0.355980 3.902462 -12.541145
						CHANNELS 3 Xrotation Yrotation Zrotation
						End Site
						{
							OFFSET -3.916199 -12.806131 1.542559
						}
					}
					JOINT R_Toe3
					{
						OFFSET 4.603411 3.183941 -12.435266
						CHANNELS 3 Xrotation Yrotation Zrotation
						End Site
						{
							OFFSET -3.810825 -12.587429 2.957591
						}
					}
					JOINT R_Toe4
					{
						OFFSET 7.144323 6.231503 -10.072779
						CHANNELS 3 Xrotation Yrotation Zrotation
						End Site
						{
							OFFSET -3.810825 -12.587433 2.957584
						}
					}
				}
			}
		}
	}
}
MOTION
Frames: 4
Frame Time: 0.033333
0.000000 0.000000 52.000000 0.000000 -0.000000 0.000061 -8.842944 -0.000088 0.000007 10.961080 0.000007 0.000018 2.118162 -0.000001 0.000003 4.876472 -0.000002 0.000004 -2.163954 0.000002 -0.000003 -6.986523 0.000003 -0.000007 -13.013544 0.000008 -0.000015 14.417327 -0.000016 -0.000007 -11.537026 -0.000053 0.000048 0.000008 0.000000 -0.000000 0.000020 0.000000 -0.000000 -0.000004 0.000007 -0.000015 0.000106 -0.000066 0.000014 0.000000 -0.000003 -0.000001 0.000003 -0.000005 0.000010 0.000001 0.000000 -0.000003 0.000103 0.000067 -0.000035 0.000002 -0.000002 -0.000001 0.000000 -0.000000 -0.000003 -0.000001 -0.000000 -0.000000 -0.000879 4.114584 11.904649 26.136755 -13.607829 -29.332463 -23.413059 4.857578 -5.359891 -64.573449 -13.413030 -14.628665 4.814256 45.237886 32.496804 0.108383 -0.103824 0.046716 31.239885 13.715133 -10.715216 -21.103490 -3.971339 -2.962964 30.256539 6.344421 -6.448661 -32.343285 -14.390353 -8.157530 20.872341 -11.244813 -8.185810 -18.722443 -18.085397 -5.094126 18.635514 -29.682653 -0.393834 0.555230 0.804618 0.101801 -0.000907 -4.114892 -11.904635 1.175200 14.107552 33.206126 -12.983234 -2.414578 3.207821 -53.408968 5.511581 0.402027 4.813897 -45.237818 -32.497101 0.108378 0.103826 -0.046713 31.239929 -13.715160 10.714981 -21.103468 3.971280 2.963143 30.256553 -6.344441 6.448432 -32.343306 14.390251 8.157746 20.872413 11.244826 8.185616 -18.722472 18.085337 5.094272 18.635558 29.682667 0.393669 0.555237 -0.804614 -0.101800 -12.821442 -0.000004 0.000031 -8.690510 -1.231629 3.950030 4.074680 -0.411161 3.257981 10.928606 -1.224481 -4.711672 8.748305 -0.666063 -3.879163 3.684312 -0.619762 -7.917677 2.127006 -0.853754 -8.839842 2.594717 -2.139009 7.097612 0.985432 -1.366354 6.127730 0.657235 -0.804966 6.204771 -27.408726 -10.892075 11.838918 -10.432305 -0.073225 -2.410080 -27.254000 -19.732183 -8.454294 -2.318604 -4.298922 -0.446780 8.087280 0.872446 0.413557 17.133864 6.636304 3.687468 20.253586 6.370498 -9.434366 -1.696113 7.323618 -8.103847 -11.861929 7.004609 -18.243975 -11.337847 0.058835 2.619214 -43.148153 17.397725 11.351631 -2.318666 4.298933 0.446771 8.087269 -0.872380 -0.413611 17.133782 -6.636234 -3.687516 20.253522 -6.370392 9.434288 -1.696119 -7.323583 8.103858 
0.000000 4.728601 48.083099 -0.113566 -0.000000 0.000068 -8.842951 1.516543 0.000044 8.326874 -0.036712 0.139922 1.029356 -0.006915 -0.036318 6.028243 0.003362 0.195523 -1.004231 -0.039908 0.020704 -1.608732 0.075947 -0.284707 1.463631 0.078661 -0.286823 6.288660 -1.469285 0.778678 -6.328037 -0.000048 0.000055 0.000010 0.000000 -0.000000 5.617680 -0.000010 -0.000007 -0.000006 0.000007 -0.000015 0.000103 -0.000065 0.000018 0.000004 0.000002 0.000001 0.000002 -0.000002 0.000014 -0.000000 0.000000 -0.000005 0.000102 0.000066 -0.000035 0.000005 -0.000007 0.000001 -0.000000 -0.000002 -0.000002 0.000000 0.000000 -0.000000 0.000102 14.139785 13.727003 25.485201 -29.413315 -19.387681 -42.415482 10.164234 -8.040030 -45.785046 -12.756938 -9.678831 4.813633 45.237846 32.496667 0.107987 -0.103453 0.046548 31.239325 13.715049 -10.715100 -21.104050 -3.971427 -2.963060 30.255945 6.344439 -6.448762 -32.343852 -14.390544 -8.157738 20.871952 -11.245301 -8.186014 -18.722886 -18.085765 -5.094305 18.635130 -29.683104 -0.394093 0.554912 0.804147 0.101744 0.000382 -13.694111 -11.312877 -4.244191 23.967556 32.256603 -20.266647 -4.078437 4.756327 -42.519389 4.038748 -3.107904 4.813907 -45.237818 -32.497108 0.108382 0.103822 -0.046712 31.239933 -13.715161 10.714981 -21.103468 3.971278 2.963137 30.256567 -6.344444 6.448432 -32.343306 14.390252 8.157746 20.872421 11.244827 8.185611 -18.722474 18.085339 5.094266 18.635551 29.682646 0.393687 0.555233 -0.804617 -0.101803 -11.068071 -0.288294 0.799559 -7.437595 -0.939011 7.930077 2.882448 -0.407904 0.128109 10.527463 -1.148080 -8.563928 8.758908 -0.451779 -6.079405 4.112143 -0.495117 -7.576293 2.682302 -0.932130 -6.387064 2.825252 -1.404522 10.178593 0.788166 -0.678889 8.084433 0.152560 -0.943552 6.071752 -46.869356 -13.934210 3.261001 12.155739 0.634283 2.739479 -31.658022 -20.031832 -10.804646 -2.318877 -4.299057 -0.446813 8.087056 0.872343 0.413551 17.133560 6.636176 3.687481 20.253261 6.370373 -9.434346 -1.696411 7.323481 -8.103873 -29.388982 9.283377 -13.274053 11.742803 -0.603205 -2.648846 -49.263245 17.000667 14.451951 -2.312423 4.297022 0.446522 8.087263 -0.872388 -0.413603 17.133782 -6.636229 -3.687515 20.253507 -6.370421 9.434307 -1.698441 -7.323851 8.098850 
0.000001 9.782440 43.859612 -0.227145 -0.000001 0.000068 -8.842947 3.218399 0.000029 5.391134 -0.108703 0.226284 -0.125100 -0.012180 -0.072734 7.421519 0.007977 0.408192 0.398093 -0.079127 0.041984 2.016396 0.103641 -0.455660 11.969247 0.085864 -0.460637 0.588430 -2.926693 1.780860 -1.419270 -0.000038 0.000050 0.000009 -0.000000 -0.000000 8.988298 -0.000017 -0.000011 -0.000003 0.000006 -0.000015 0.000107 -0.000066 0.000016 0.000009 0.000000 -0.000002 0.000006 -0.000007 0.000012 0.000002 0.000000 -0.000007 0.000103 0.000066 -0.000036 0.000005 -0.000011 -0.000000 -0.000000 -0.000001 -0.000003 -0.000001 -0.000000 -0.000000 0.002901 25.042335 15.649598 17.699148 -45.675005 -13.362647 -53.520915 13.556965 -8.748798 -29.326445 -8.701419 -1.638615 4.812617 45.237770 32.496411 0.107323 -0.102819 0.046264 31.238355 13.714905 -10.714908 -21.104984 -3.971574 -2.963227 30.254951 6.344637 -6.448990 -32.344764 -14.390859 -8.158065 20.871322 -11.246134 -8.186366 -18.723628 -18.086389 -5.094617 18.634494 -29.683876 -0.394527 0.554378 0.803373 0.101652 0.003401 -23.919106 -10.680464 -14.490171 32.483393 35.465259 -21.190908 -4.303774 4.937962 -34.648105 0.270367 -6.874200 4.813883 -45.237811 -32.497125 0.108380 0.103821 -0.046715 31.239926 -13.715162 10.714982 -21.103464 3.971276 2.963137 30.256553 -6.344443 6.448427 -32.343306 14.390251 8.157746 20.872413 11.244832 8.185621 -18.722469 18.085328 5.094267 18.635551 29.682653 0.393682 0.555235 -0.804619 -0.101803 -9.451144 -0.555292 1.591585 -6.253599 -0.699609 11.868346 1.928090 -0.416582 -2.323373 10.084711 -1.063124 -11.958413 8.541648 -0.339669 -8.569703 4.282038 -0.421092 -8.183565 3.070909 -0.948526 -5.038317 3.132243 -0.764598 12.557415 0.891901 -0.016757 10.221841 0.123572 -0.871047 6.921126 -64.605585 -13.737828 -4.939397 26.846540 2.152957 5.791251 -29.964074 -21.318117 -12.041524 -2.319459 -4.299343 -0.446859 8.086556 0.872133 0.413551 17.133121 6.635988 3.687514 20.252846 6.370189 -9.434309 -1.696815 7.323272 -8.103902 -45.176165 9.387695 -9.628934 27.417353 -2.227516 -5.901672 -50.122841 18.079946 16.989995 -2.318672 4.298939 0.446771 8.087263 -0.872373 -0.413611 17.126474 -6.634036 -3.687988 20.258119 -6.371809 9.434693 -1.697021 -7.322624 8.107302 
0.000001 14.185804 40.249306 -0.369267 -0.000001 0.000065 -8.842961 4.549795 0.000042 3.052267 -0.158081 0.224468 -1.148263 -0.015917 -0.114677 8.331810 0.012446 0.586226 1.315258 -0.109575 0.064734 2.234491 0.091986 -0.393069 15.221580 0.060448 -0.398324 0.067510 -4.012979 2.161947 3.270142 -0.000033 0.000051 0.000009 -0.000000 0.000000 4.824009 -0.000009 -0.000006 -0.000006 0.000007 -0.000013 0.000105 -0.000067 0.000012 0.000003 -0.000005 0.000000 0.000007 -0.000005 0.000009 -0.000003 0.000000 -0.000005 0.000103 0.000069 -0.000035 0.000006 -0.000006 0.000000 0.000006 -0.000001 0.000003 -0.000001 -0.000000 0.000000 0.007109 34.190151 17.369209 0.975423 -58.975296 -19.091089 -55.426893 14.146339 -8.802448 -19.832732 -2.418014 5.382278 4.812416 45.237764 32.496370 0.107206 -0.102692 0.046212 31.238171 13.714876 -10.714868 -21.105165 -3.971603 -2.963257 30.254613 6.345213 -6.449243 -32.344945 -14.390920 -8.158130 20.871231 -11.246377 -8.186478 -18.723784 -18.086522 -5.094676 18.634356 -29.684016 -0.394638 0.554272 0.803214 0.101638 0.007766 -32.852537 -10.126698 -26.522255 37.983761 42.587394 -16.642473 -3.224998 4.011090 -31.306677 -4.544836 -9.363299 4.813888 -45.237808 -32.497128 0.108386 0.103824 -0.046713 31.239933 -13.715162 10.714984 -21.103459 3.971277 2.963135 30.256560 -6.344444 6.448424 -32.343306 14.390251 8.157744 20.872418 11.244826 8.185615 -18.722467 18.085328 5.094266 18.635548 29.682643 0.393690 0.555237 -0.804613 -0.101803 -8.124953 -0.803670 2.492221 -5.076667 -0.852101 16.086108 1.595130 -0.567992 -3.161836 9.465884 -0.970102 -14.461752 7.571121 -0.441253 -12.359590 3.693016 -0.444791 -11.766518 3.090536 -0.833125 -6.710616 3.905572 -0.308295 13.550948 2.031983 0.764125 13.816037 1.496197 -0.007363 11.282139 -78.023491 -11.439171 -10.674785 34.292867 3.211358 7.170722 -24.540323 -23.160695 -12.252314 -2.320309 -4.299732 -0.446929 8.085952 0.871890 0.413550 17.132577 6.635752 3.687550 20.252291 6.369963 -9.434261 -1.697346 7.322970 -8.103931 -55.292946 9.248065 -6.291992 37.605854 -3.738826 -7.739462 -51.366311 20.792158 17.477544 -2.747961 2.955625 0.701885 7.696499 -2.150401 0.080071 16.820878 -7.821375 -2.992682 19.941345 -7.515247 10.192422 -2.053079 -8.669569 8.375593 
